<svg viewBox="0 0 1254 1254" xmlns="http://www.w3.org/2000/svg">
  <style>
    path { fill: #161215; }
    :root[data-theme="dark"] path { fill: #f0f7f4; }
    @media (prefers-color-scheme: dark) {
      path { fill: #f0f7f4; }
    }
  </style>
  <script><![CDATA[
    (() => {
      const query = window.matchMedia && window.matchMedia("(prefers-color-scheme: dark)");
      const sync = () => document.documentElement.dataset.theme = query && query.matches ? "dark" : "light";
      sync();
      if (query && query.addEventListener) query.addEventListener("change", sync);
    })();
  ]]></script>
  <path d="m627 5.59c-343.2 0-621.41 278.21-621.41 621.41 0 183.13 79.23 347.76 205.27 461.49-35.75-70.69-52.17-148.98-46.35-228.2 2.82-38.42 10.91-75.36 22.59-111.92 20.61 64.73 62.61 110.62 109.97 155.26 102.89 94.62 224.16 161.01 287.55 292.09 8.05 16.99 14.7 34.4 19.53 52.27 7.59.27 15.21.42 22.87.42s15.28-.14 22.87-.42c4.83-17.87 11.48-35.28 19.53-52.27 63.39-131.08 184.66-197.48 287.55-292.09 47.36-44.65 89.35-90.53 109.97-155.26 11.68 36.56 19.77 73.5 22.59 111.92 5.82 79.22-10.6 157.51-46.35 228.2 126.04-113.73 205.27-278.35 205.27-461.49-.04-343.2-278.25-621.41-621.45-621.41zm411.95 597.87c15.27 50.64 14.03 104.28-4.99 153.54-23.9 59.49-72.9 103.44-135.09 122.47l33.04 11.72-56.61 47.72-87.59 71.72c-26.16 24.33-75.92 72.61-97.64 101.16-19.09 24.5-63.08 111.74-63.08 111.74s-43.98-87.24-63.07-111.74c-21.72-28.55-71.49-76.83-97.65-101.16l-87.59-71.72-56.61-47.72 33.04-11.72c-62.19-19.02-111.19-62.98-135.09-122.47-19.02-49.26-20.26-102.9-4.99-153.54 12.85-44.87 36.23-84.79 67.89-120.31-41.84-22.53-71.92-61.59-80.03-108.44 17.29 8.78 30.98 17.75 48.36 23.43-13.56-41.39-15.45-83.98-2.55-124.6 50.83 58.92 124.47 86.52 198.67 99.72 27.05-16.39 55.26-28.32 86.28-35.63 29.83-7.03 61.48-10.75 93.34-10.74s0 0 0 0c31.86 0 63.5 3.71 93.34 10.74 31.02 7.31 59.23 19.24 86.28 35.63 74.2-13.2 147.84-40.8 198.67-99.72 12.9 40.61 11.02 83.2-2.55 124.6 17.38-5.68 31.07-14.65 48.36-23.43-8.11 46.85-38.19 85.91-80.03 108.44 31.65 35.52 55.04 75.44 67.89 120.31z"/>
</svg>
