<svg viewBox="0 0 69.67 18.17" xmlns="http://www.w3.org/2000/svg"><path d="m15.61 4.94c-.38 0-.7-.31-.7-.7s.31-.7.7-.7.7.31.7.7-.31.7-.7.7zm.87-1.53-.04-.04c-.43-.44-1.14-.44-1.57 0l-1.89 1.89c-1.88-1.17-4.37-.93-6 .7-1.9 1.91-1.9 5 0 6.9 1.9 1.91 4.98 1.91 6.88 0 1.62-1.62 1.86-4.1.72-5.98l1.89-1.9c.43-.44.43-1.14 0-1.58z" fill="#3e4347"/><path d="m7.47 8.3c-.77 1.71-.22 3.62 1.23 4.28 1.45.65 3.24-.2 4.01-1.91s.22-3.62-1.23-4.28-3.24.2-4.01 1.91z" fill="#fff"/><circle cx="9.48" cy="9.41" fill="#f39a2d" r="1.5"/><path d="m20.64 4.78h4.35v.88h-3.31v2.69h3.06v.86h-3.06v3.66h-1.04zm5.6-.43h1.06v8.52h-1.06zm6.05 8.51-.08-.73h-.04c-.32.46-.95.86-1.77.86-1.18 0-1.77-.83-1.77-1.67 0-1.4 1.25-2.17 3.49-2.16v-.12c0-.48-.13-1.34-1.32-1.34-.54 0-1.1.17-1.51.43l-.24-.7c.48-.31 1.18-.52 1.91-.52 1.77 0 2.21 1.21 2.21 2.37v2.17c0 .5.02 1 .1 1.39h-.96zm-.16-2.96c-1.15-.02-2.46.18-2.46 1.31 0 .68.46 1.01 1 1.01.76 0 1.24-.48 1.4-.97.04-.11.06-.23.06-.34zm2.58 1.88c.31.2.86.42 1.39.42.77 0 1.13-.38 1.13-.86 0-.5-.3-.78-1.08-1.07-1.04-.37-1.54-.95-1.54-1.64 0-.94.76-1.7 2-1.7.59 0 1.1.17 1.43.36l-.26.77c-.23-.14-.65-.34-1.19-.34-.62 0-.97.36-.97.79 0 .48.35.7 1.1.98 1.01.38 1.52.89 1.52 1.75 0 1.02-.79 1.74-2.17 1.74-.64 0-1.22-.16-1.63-.4l.26-.8zm4.9-7.43h1.06v3.62h.02c.17-.3.43-.56.76-.74.31-.18.68-.3 1.08-.3.78 0 2.03.48 2.03 2.48v3.45h-1.06v-3.33c0-.94-.35-1.73-1.34-1.73-.68 0-1.22.48-1.42 1.06-.06.14-.07.3-.07.5v3.5h-1.06zm9.11 4.88v.78h-2.96v-.78zm1.27-4.45h4.35v.88h-3.31v2.69h3.06v.86h-3.06v3.66h-1.04zm5.49 4.09c0-.68-.01-1.27-.05-1.81h.92l.04 1.14h.05c.26-.78.9-1.27 1.61-1.27.12 0 .2.01.3.04v1c-.11-.02-.22-.04-.36-.04-.74 0-1.27.56-1.42 1.36-.02.14-.05.31-.05.49v3.09h-1.04v-3.99zm4.61-1.81 1.27 3.43c.13.38.28.84.37 1.19h.02c.11-.35.23-.79.37-1.21l1.15-3.41h1.12l-1.58 4.14c-.76 1.99-1.27 3.01-1.99 3.63-.52.46-1.03.64-1.29.68l-.26-.89c.26-.08.61-.25.92-.52.29-.23.65-.64.89-1.18.05-.11.08-.19.08-.25s-.02-.14-.07-.28l-2.15-5.35h1.15z" fill="#1d1d1b"/><path d="m.5.5h68.67v17.17h-68.67z" fill="none" stroke="#1d1d1b" stroke-miterlimit="10"/></svg>